<svg width="173" height="173" viewBox="0 0 173 173" fill="none" xmlns="http://www.w3.org/2000/svg">
<path d="M172.975 86.5744C172.975 134.265 134.315 172.925 86.6245 172.925C38.9339 172.925 0.272537 134.265 0.272537 86.5744C0.272537 38.8837 38.9339 0.223724 86.6245 0.223724C134.315 0.223724 172.975 38.8837 172.975 86.5744Z" fill="#B9C4E1"/>
<path d="M120.215 72.4307C120.215 96.4134 105.177 115.855 86.6248 115.855C68.0728 115.855 53.0328 96.4134 53.0328 72.4307C53.0328 48.4481 68.0728 29.0067 86.6248 29.0067C105.177 29.0067 120.215 48.4481 120.215 72.4307Z" fill="white"/>
<path d="M86.6241 119.08C58.5255 119.08 33.7935 127.667 19.3495 140.684C35.1775 160.337 59.4241 172.925 86.6241 172.925C113.824 172.925 138.072 160.337 153.899 140.684C139.455 127.667 114.723 119.08 86.6241 119.08Z" fill="white"/>
<path d="M90.3745 141.412H82.8745C75.8159 141.412 70.0412 135.638 70.0412 128.579V99.4082C70.0412 92.3496 75.8159 86.5749 82.8745 86.5749H90.3745C97.4332 86.5749 103.208 92.3496 103.208 99.4082V128.579C103.208 135.638 97.4332 141.412 90.3745 141.412Z" fill="white"/>
<path d="M57.6712 74.4453C59.6272 80.0773 58.8512 85.4627 55.9379 86.4733C53.0245 87.4853 49.0779 83.74 47.1232 78.108C45.1672 72.4773 45.9432 67.092 48.8565 66.08C51.7685 65.0693 55.7152 68.8147 57.6712 74.4453Z" fill="white"/>
<path d="M115.577 74.4453C113.621 80.0773 114.397 85.4627 117.311 86.4733C120.224 87.4853 124.171 83.74 126.125 78.108C128.081 72.4773 127.305 67.092 124.392 66.08C121.48 65.0693 117.533 68.8147 115.577 74.4453Z" fill="white"/>
<path d="M57.2259 74.2629C52.8605 66.3229 48.3699 57.8989 48.5939 48.8416C48.8179 39.7843 55.7139 30.2229 64.7685 30.5523C66.3485 30.6096 67.9312 30.9563 69.4965 30.7336C72.6285 30.2883 74.9485 27.7283 77.4885 25.8429C83.2179 21.5936 91.1965 20.5856 97.8032 23.2763C101.885 24.9389 105.342 27.8469 109.323 29.7389C116.742 33.2656 125.885 32.8949 132.994 28.7816C131.511 31.5709 129.001 33.8003 126.055 34.9429C128.771 35.8083 131.781 35.7256 134.445 34.7096C132.839 37.6189 130.183 39.9323 127.082 41.1243C129.381 41.2829 131.679 41.4416 133.978 41.5989C132.017 44.3776 129.215 46.5523 126.038 47.7643C127.839 47.8229 129.641 47.8816 131.442 47.9389C130.101 51.9149 126.622 55.0949 122.542 56.0763C123.705 56.0923 124.866 56.1083 126.027 56.1243C122.221 61.6163 118.415 67.1083 114.609 72.6003C113.521 74.1696 112.391 75.7803 110.783 76.8109C109.449 77.6656 107.877 78.0589 106.329 78.4069C95.0552 80.9349 83.3859 81.6936 71.8792 80.6496C67.9419 80.2923 63.8259 79.6443 60.6979 77.2283C57.5699 74.8109 55.8939 70.0869 58.0472 66.7723" fill="white"/>
<path d="M64.9692 127.285C65.2172 122.727 65.7852 118.189 66.6679 113.711C68.9199 116.287 72.7425 116.61 76.1625 116.749C81.3385 116.959 86.5145 117.17 91.6892 117.381C92.2932 120.911 92.7119 125.062 90.1612 127.578C88.9785 128.743 87.3452 129.322 85.7452 129.767C82.2559 130.737 78.6399 131.243 75.0185 131.266C70.7225 131.294 65.6025 130.006 64.2279 125.935C64.6945 125.553 65.1599 125.17 65.6265 124.787" fill="white"/>
<path d="M108.279 127.285C108.031 122.727 107.463 118.189 106.582 113.711C104.329 116.287 100.506 116.61 97.0859 116.749C91.9099 116.959 86.7339 117.17 81.5592 117.381C80.9552 120.911 80.5365 125.062 83.0872 127.578C84.2712 128.743 85.9032 129.322 87.5032 129.767C90.9925 130.737 94.6085 131.243 98.2299 131.266C102.526 131.294 107.646 130.006 109.021 125.935C108.554 125.553 108.089 125.17 107.622 124.787" fill="white"/>
</svg>
